<mxfile host="app.diagrams.net" modified="2023-04-08T11:37:08.714Z" agent="Mozilla/5.0 (Windows NT 10.0; Win64; x64) AppleWebKit/537.36 (KHTML, like Gecko) Chrome/112.0.0.0 Safari/537.36" version="21.1.5" etag="jBKR51H4SDTyTT5lmb8C" type="github">
  <diagram name="Page-1" id="oRzIQNR_1Km2bi1J7UMM">
    <mxGraphModel>
      <root>
        <mxCell id="0" />
        <mxCell id="1" parent="0" />
      </root>
    </mxGraphModel>
  </diagram>
</mxfile>
